# xmcd
#
# Track frame offsets:
#	150
#	39838
#	77742
#	149551
#	178139
#	217612
#	259619
#
# Disc length: 4652 seconds
#
# Revision: 2
# Processed by: cddbd v1.5.2PL0 Copyright (c) Steve Scherf et al.
# Submitted via: EasyCDDAExtractor 16.0.8.1
#
DISCID=57122a07
DTITLE=Jimi Hendrix - Blues At Midnight
DYEAR=2007
DGENRE=Blues
TTITLE0=Everything's Gonna Be Alright
TTITLE1=Stormy Monday Blues
TTITLE2=Three Little Bears
TTITLE3=Instrumental Jam I In D
TTITLE4=Instrumental Jam II In A
TTITLE5=Little Wing
TTITLE6=Blues Jam 1 (San Ho Zay)
EXTD=
EXTT0=
EXTT1=
EXTT2=
EXTT3=
EXTT4=
EXTT5=
EXTT6=
PLAYORDER=
